# xmcd CD database file
#
# Track frame offsets:
#        187
#        15637
#        29975
#        44687
#        57255
#        69407
#        84232
#        95530
#        107735
#        122907
#        137170
#        149135
#        167165
#        181695
#        197590
#        212055
#        225757
#        240105
#        256077
#        271887
#
# Disc length: 3881 seconds
#
# Revision: 0
# Processed by: cddbd v1.5.2PL0 Copyright (c) Steve Scherf et al.
# Submitted via: CUERipper 2.1.5
#
DISCID=160f2714
DTITLE=Mitch Ryder And The Detroit Wheels - REV UP The Best Of Mitch Ryder And The Detroit Wheels
DYEAR=1900
DGENRE=
TTITLE0=Jenny Take A Ride!
TTITLE1=Little Latin Lupe Lu
TTITLE2=Shakin' With Linda
TTITLE3=I Like It Like That
TTITLE4=I Had It Made
TTITLE5=Break-out
TTITLE6=Shake A Tail Feather
TTITLE7=Just A Little Bit
TTITLE8=Takin' All I Can Get
TTITLE9=You Get Your Kicks
TTITLE10=Sticks And Stones
TTITLE11=Baby Jane (Mo-Mo Jane)
TTITLE12=Joy
TTITLE13=Devil With A Blue Dress On and Good Golly Miss Molly
TTITLE14=Sock It To Me - Baby!
TTITLE15=Too Many Fish In the Sea and Three Little Fishes
TTITLE16=I'd Rather Go To Jail
TTITLE17=Liberty
TTITLE18=Long Neck Goose
TTITLE19=Rock 'N Roll
EXTD=
EXTT0=
EXTT1=
EXTT2=
EXTT3=
EXTT4=
EXTT5=
EXTT6=
EXTT7=
EXTT8=
EXTT9=
EXTT10=
EXTT11=
EXTT12=
EXTT13=
EXTT14=
EXTT15=
EXTT16=
EXTT17=
EXTT18=
EXTT19=
PLAYORDER=
